<svg xmlns="http://www.w3.org/2000/svg" width="98" height="105" viewBox="0 0 98 105" fill="none">
  <path d="M3.12207 91.5038V29.0867C3.12207 23.4343 7.70428 18.8521 13.3567 18.8521H53.9136C59.5661 18.8521 64.1483 23.4342 64.1483 29.0867V91.5038C64.1483 97.1562 59.5661 101.738 53.9136 101.738H13.3567C7.70428 101.738 3.12207 97.1562 3.12207 91.5038Z" stroke="#7CB7B0" stroke-width="4"/>
  <path d="M33.5996 18.8522H53.2178C59.2543 18.8522 64.1478 23.7457 64.1478 29.7822V90.8085C64.1478 91.9773 63.9644 93.1033 63.6247 94.1592L65.1733 94.5741C71.0041 96.1365 76.9975 92.6762 78.5599 86.8454L94.3546 27.8986C95.917 22.0678 92.4567 16.0744 86.6259 14.5121L48.7944 4.37515C42.9635 2.81278 36.9702 6.27305 35.4078 12.1039L33.5996 18.8522Z" stroke="#7CB7B0" stroke-width="4"/>
  <path d="M27.2744 71.204H25.3744V73.104V79.7707C25.3744 81.903 27.103 83.6315 29.2352 83.6315H38.647C40.7793 83.6315 42.5078 81.903 42.5078 79.7707V73.104V71.204H40.6078H27.2744Z" stroke="#7CB7B0" stroke-width="3.8"/>
  <path d="M25.2754 77.845H42.3763" stroke="#7CB7B0" stroke-width="3.8"/>
  <path d="M14.0039 33.538L17.2828 37.9559" stroke="#7CB7B0" stroke-width="3.8" stroke-linecap="round"/>
  <path d="M32.7383 26.5421L32.6599 32.0433" stroke="#7CB7B0" stroke-width="3.8" stroke-linecap="round"/>
  <path d="M52.2559 32.3972L48.431 36.3519" stroke="#7CB7B0" stroke-width="3.8" stroke-linecap="round"/>
  <path d="M12.4492 75.5812L16.274 71.6265" stroke="#7CB7B0" stroke-width="3.8" stroke-linecap="round"/>
  <path d="M52.8701 76.679L49.5912 72.2611" stroke="#7CB7B0" stroke-width="3.8" stroke-linecap="round"/>
  <path d="M33.8257 38.6338C25.6929 38.6338 19.1 45.2267 19.1 53.3595V56.4688C19.1 64.6016 25.6929 71.1945 33.8257 71.1945C41.9585 71.1945 48.5514 64.6016 48.5514 56.4688V53.3595C48.5514 45.2267 41.9585 38.6338 33.8257 38.6338Z" stroke="#7CB7B0" stroke-width="3.8"/>
  <path d="M24.1094 51.4163L27.091 57.9572C27.7609 59.4267 29.8204 59.5018 30.5954 58.0849L32.3635 54.8527C33.1385 53.4359 35.1981 53.5109 35.8679 54.9804L36.9188 57.2858C37.6387 58.865 39.9043 58.7993 40.5314 57.1809L42.7649 51.4163" stroke="#7CB7B0" stroke-width="3.8"/>
  </svg>