<?xml version="1.0" encoding="UTF-8"?>

<svg width="98" height="105" viewBox="0 0 98 105" fill="none" xmlns="http://www.w3.org/2000/svg">
  <path
    d="M3.12189 91.5038V29.0867C3.12189 23.4343 7.70409 18.8521 13.3565 18.8521H53.9134C59.5659 18.8521 64.1481 23.4342 64.1481 29.0867V91.5038C64.1481 97.1562 59.5659 101.738 53.9135 101.738H13.3565C7.7041 101.738 3.12189 97.1562 3.12189 91.5038Z"
    stroke="#7CB7B0" stroke-width="4" />
  <path
    d="M33.5998 18.8522H53.2179C59.2544 18.8522 64.148 23.7457 64.148 29.7822V90.8085C64.148 91.9773 63.9645 93.1033 63.6248 94.1592L65.1735 94.5741C71.0043 96.1365 76.9977 92.6762 78.56 86.8454L94.3548 27.8986C95.9171 22.0678 92.4569 16.0744 86.6261 14.5121L48.7945 4.37515C42.9637 2.81278 36.9703 6.27305 35.408 12.1039L33.5998 18.8522Z"
    stroke="#7CB7B0" stroke-width="4" />
  <path
    d="M27.2747 71.204H25.3747V73.104V79.7707C25.3747 81.903 27.1032 83.6315 29.2354 83.6315H38.6473C40.7795 83.6315 42.5081 81.903 42.5081 79.7707V73.104V71.204H40.6081H27.2747Z"
    stroke="#7CB7B0" stroke-width="3.8" />
  <path d="M25.2754 77.845H42.3763" stroke="#7CB7B0" stroke-width="3.8" />
  <path d="M14.0043 33.538L17.2832 37.9559" stroke="#7CB7B0" stroke-width="3.8"
    stroke-linecap="round" />
  <path d="M32.7383 26.5421L32.6599 32.0433" stroke="#7CB7B0" stroke-width="3.8"
    stroke-linecap="round" />
  <path d="M52.2559 32.3972L48.4311 36.3519" stroke="#7CB7B0" stroke-width="3.8"
    stroke-linecap="round" />
  <path d="M12.4496 75.5812L16.2745 71.6265" stroke="#7CB7B0" stroke-width="3.8"
    stroke-linecap="round" />
  <path d="M52.8701 76.679L49.5911 72.2611" stroke="#7CB7B0" stroke-width="3.8"
    stroke-linecap="round" />
  <path
    d="M33.8259 38.6338C25.6931 38.6338 19.1001 45.2267 19.1001 53.3595V56.4688C19.1001 64.6016 25.6931 71.1945 33.8259 71.1945C41.9586 71.1945 48.5516 64.6016 48.5516 56.4688V53.3595C48.5516 45.2267 41.9586 38.6338 33.8259 38.6338Z"
    stroke="#7CB7B0" stroke-width="3.8" />
  <path
    d="M24.1094 51.4163L27.0911 57.9572C27.7609 59.4267 29.8205 59.5018 30.5955 58.0849L32.3635 54.8527C33.1386 53.4359 35.1981 53.5109 35.868 54.9804L36.9189 57.2858C37.6388 58.865 39.9043 58.7993 40.5314 57.1809L42.765 51.4163"
    stroke="#7CB7B0" stroke-width="3.8" />
</svg>