<?xml version="1.0" encoding="UTF-8"?>

<svg width="32" height="32" viewBox="0 0 32 32" fill="none" xmlns="http://www.w3.org/2000/svg">
  <g clip-path="url(#clip0_46_1018)">
    <path
      d="M23.9822 15.349V20.7847C23.9822 26.0824 19.6875 30.377 14.3898 30.377H11.1924C5.89465 30.377 1.60001 26.0824 1.60001 20.7847V15.349C1.60001 14.8192 2.02947 14.3898 2.55924 14.3898H23.0229C23.5527 14.3898 23.9822 14.8192 23.9822 15.349Z"
      stroke="#383D43" stroke-width="2" stroke-linecap="round" stroke-linejoin="round" />
    <path
      d="M15.9885 11.1923C15.9885 9.59356 17.1305 7.99483 19.4144 7.99483C21.9371 7.99483 23.9822 5.94976 23.9822 3.42705V2.39929"
      stroke="#383D43" stroke-width="2" stroke-linecap="round" stroke-linejoin="round" />
    <path
      d="M9.59363 11.1923V10.393C9.59363 7.74412 11.741 5.59679 14.3898 5.59679C16.1558 5.59679 17.5873 4.16524 17.5873 2.39934V1.59998"
      stroke="#383D43" stroke-width="2" stroke-linecap="round" stroke-linejoin="round" />
    <path
      d="M22.3834 14.3898H26.3802C28.5876 14.3898 30.377 16.1792 30.377 18.3866C30.377 20.5939 28.5876 22.3834 26.3802 22.3834H23.9821"
      stroke="#383D43" stroke-width="2" stroke-linecap="round" stroke-linejoin="round" />
  </g>
  <defs>
    <clipPath id="clip0_46_1018">
      <rect width="32" height="32" fill="white" />
    </clipPath>
  </defs>
</svg>